<svg width="128" height="128" viewBox="0 0 128 128" fill="none" xmlns="http://www.w3.org/2000/svg">
<rect width="128" height="128" rx="64" fill="url(#paint0_linear_15_25)"/>
<g filter="url(#filter0_ddii_15_25)">
<mask id="path-2-inside-1_15_25" fill="white">
<path fill-rule="evenodd" clip-rule="evenodd" d="M95 96.5H87V100H41V87L45 83.7407V75.2222L33 85V108H95V96.5ZM83.9497 43.4854L87 41V28H41V31H33V20H95V43L89.8462 47.1994C89.8493 47.203 89.8525 47.2066 89.8557 47.2102L83.6307 52.2824C83.2231 51.8858 82.7437 51.5701 82.218 51.3524C81.6733 51.1268 81.0896 51.0106 80.5 51.0106V51H74.7273H58V43H72.5V30.5H84.5V39.0649H81.5V43.0401C82.3297 43.1067 83.1503 43.2559 83.9497 43.4854ZM84.5 88V96.5H72.5V86.5V68H56V74.7778L47 82.0048V68.05C45.8589 68.2817 45 69.2905 45 70.5V73L37 79.5V50.5H34V43H37H45V56.75V57C45 58.3062 45.8348 59.4175 47 59.8293V39.0649H44V30.5H56V60H58.5H72.5V53H81.5V59.8766C81.7448 59.8206 81.985 59.7442 82.218 59.6476C82.7627 59.422 83.2576 59.0913 83.6744 58.6745C84.0913 58.2576 84.422 57.7627 84.6476 57.218C84.8732 56.6733 84.9893 56.0896 84.9893 55.5C84.9893 54.9104 84.8732 54.3267 84.6476 53.782C84.6196 53.7144 84.59 53.6477 84.5589 53.5817L90.8346 48.4681C91.3138 49.1725 91.7209 49.9256 92.0485 50.7165C92.6767 52.233 93 53.8585 93 55.5C93 57.1415 92.6767 58.767 92.0485 60.2835C91.4804 61.6551 90.673 62.9133 89.6652 64C91.8049 66.307 93 69.3419 93 72.5C93 75.8152 91.683 78.9946 89.3388 81.3388C87.5929 83.0848 85.3836 84.2609 83 84.7475V76.2289C83.2406 76.0676 83.4667 75.8823 83.6745 75.6744C84.5164 74.8325 84.9894 73.6907 84.9894 72.5C84.9894 71.3093 84.5164 70.1675 83.6745 69.3256C83.0724 68.7235 82.317 68.3101 81.5 68.1234V86.5V88H84.5ZM56 96.5H44V87.9351H47V84.5L56 77L70 77V85H56V96.5Z"/>
</mask>
<path fill-rule="evenodd" clip-rule="evenodd" d="M95 96.5H87V100H41V87L45 83.7407V75.2222L33 85V108H95V96.5ZM83.9497 43.4854L87 41V28H41V31H33V20H95V43L89.8462 47.1994C89.8493 47.203 89.8525 47.2066 89.8557 47.2102L83.6307 52.2824C83.2231 51.8858 82.7437 51.5701 82.218 51.3524C81.6733 51.1268 81.0896 51.0106 80.5 51.0106V51H74.7273H58V43H72.5V30.5H84.5V39.0649H81.5V43.0401C82.3297 43.1067 83.1503 43.2559 83.9497 43.4854ZM84.5 88V96.5H72.5V86.5V68H56V74.7778L47 82.0048V68.05C45.8589 68.2817 45 69.2905 45 70.5V73L37 79.5V50.5H34V43H37H45V56.75V57C45 58.3062 45.8348 59.4175 47 59.8293V39.0649H44V30.5H56V60H58.5H72.5V53H81.5V59.8766C81.7448 59.8206 81.985 59.7442 82.218 59.6476C82.7627 59.422 83.2576 59.0913 83.6744 58.6745C84.0913 58.2576 84.422 57.7627 84.6476 57.218C84.8732 56.6733 84.9893 56.0896 84.9893 55.5C84.9893 54.9104 84.8732 54.3267 84.6476 53.782C84.6196 53.7144 84.59 53.6477 84.5589 53.5817L90.8346 48.4681C91.3138 49.1725 91.7209 49.9256 92.0485 50.7165C92.6767 52.233 93 53.8585 93 55.5C93 57.1415 92.6767 58.767 92.0485 60.2835C91.4804 61.6551 90.673 62.9133 89.6652 64C91.8049 66.307 93 69.3419 93 72.5C93 75.8152 91.683 78.9946 89.3388 81.3388C87.5929 83.0848 85.3836 84.2609 83 84.7475V76.2289C83.2406 76.0676 83.4667 75.8823 83.6745 75.6744C84.5164 74.8325 84.9894 73.6907 84.9894 72.5C84.9894 71.3093 84.5164 70.1675 83.6745 69.3256C83.0724 68.7235 82.317 68.3101 81.5 68.1234V86.5V88H84.5ZM56 96.5H44V87.9351H47V84.5L56 77L70 77V85H56V96.5Z" fill="white"/>
<path fill-rule="evenodd" clip-rule="evenodd" d="M95 96.5H87V100H41V87L45 83.7407V75.2222L33 85V108H95V96.5ZM83.9497 43.4854L87 41V28H41V31H33V20H95V43L89.8462 47.1994C89.8493 47.203 89.8525 47.2066 89.8557 47.2102L83.6307 52.2824C83.2231 51.8858 82.7437 51.5701 82.218 51.3524C81.6733 51.1268 81.0896 51.0106 80.5 51.0106V51H74.7273H58V43H72.5V30.5H84.5V39.0649H81.5V43.0401C82.3297 43.1067 83.1503 43.2559 83.9497 43.4854ZM84.5 88V96.5H72.5V86.5V68H56V74.7778L47 82.0048V68.05C45.8589 68.2817 45 69.2905 45 70.5V73L37 79.5V50.5H34V43H37H45V56.75V57C45 58.3062 45.8348 59.4175 47 59.8293V39.0649H44V30.5H56V60H58.5H72.5V53H81.5V59.8766C81.7448 59.8206 81.985 59.7442 82.218 59.6476C82.7627 59.422 83.2576 59.0913 83.6744 58.6745C84.0913 58.2576 84.422 57.7627 84.6476 57.218C84.8732 56.6733 84.9893 56.0896 84.9893 55.5C84.9893 54.9104 84.8732 54.3267 84.6476 53.782C84.6196 53.7144 84.59 53.6477 84.5589 53.5817L90.8346 48.4681C91.3138 49.1725 91.7209 49.9256 92.0485 50.7165C92.6767 52.233 93 53.8585 93 55.5C93 57.1415 92.6767 58.767 92.0485 60.2835C91.4804 61.6551 90.673 62.9133 89.6652 64C91.8049 66.307 93 69.3419 93 72.5C93 75.8152 91.683 78.9946 89.3388 81.3388C87.5929 83.0848 85.3836 84.2609 83 84.7475V76.2289C83.2406 76.0676 83.4667 75.8823 83.6745 75.6744C84.5164 74.8325 84.9894 73.6907 84.9894 72.5C84.9894 71.3093 84.5164 70.1675 83.6745 69.3256C83.0724 68.7235 82.317 68.3101 81.5 68.1234V86.5V88H84.5ZM56 96.5H44V87.9351H47V84.5L56 77L70 77V85H56V96.5Z" fill="url(#paint1_linear_15_25)" fill-opacity="0.2"/>
<path d="M87 96.5V96H86.5V96.5H87ZM95 96.5H95.5V96H95V96.5ZM87 100V100.5H87.5V100H87ZM41 100H40.5V100.5H41V100ZM41 87L40.6842 86.6124L40.5 86.7624V87H41ZM45 83.7407L45.3158 84.1284L45.5 83.9783V83.7407H45ZM45 75.2222H45.5V74.1698L44.6842 74.8346L45 75.2222ZM33 85L32.6842 84.6124L32.5 84.7624V85H33ZM33 108H32.5V108.5H33V108ZM95 108V108.5H95.5V108H95ZM87 41L87.3158 41.3876L87.5 41.2376V41H87ZM83.9497 43.4854L83.8117 43.966L84.0629 44.0381L84.2655 43.8731L83.9497 43.4854ZM87 28H87.5V27.5H87V28ZM41 28V27.5H40.5V28H41ZM41 31V31.5H41.5V31H41ZM33 31H32.5V31.5H33V31ZM33 20V19.5H32.5V20H33ZM95 20H95.5V19.5H95V20ZM95 43L95.3158 43.3876L95.5 43.2376V43H95ZM89.8462 47.1994L89.5303 46.8118L89.1257 47.1415L89.4724 47.5316L89.8462 47.1994ZM89.8557 47.2102L90.1715 47.5978L90.5754 47.2687L90.23 46.8787L89.8557 47.2102ZM83.6307 52.2824L83.282 52.6408L83.6012 52.9514L83.9465 52.67L83.6307 52.2824ZM82.218 51.3524L82.4093 50.8904L82.4093 50.8904L82.218 51.3524ZM80.5 51.0106H80V51.5106H80.5V51.0106ZM80.5 51H81V50.5H80.5V51ZM58 51H57.5V51.5H58V51ZM58 43V42.5H57.5V43H58ZM72.5 43V43.5H73V43H72.5ZM72.5 30.5V30H72V30.5H72.5ZM84.5 30.5H85V30H84.5V30.5ZM84.5 39.0649V39.5649H85V39.0649H84.5ZM81.5 39.0649V38.5649H81V39.0649H81.5ZM81.5 43.0401H81V43.5015L81.46 43.5385L81.5 43.0401ZM84.5 96.5V97H85V96.5H84.5ZM84.5 88H85V87.5H84.5V88ZM72.5 96.5H72V97H72.5V96.5ZM72.5 68H73V67.5H72.5V68ZM56 68V67.5H55.5V68H56ZM56 74.7778L56.3131 75.1676L56.5 75.0175V74.7778H56ZM47 82.0048H46.5V83.0476L47.3131 82.3947L47 82.0048ZM47 68.05H47.5V67.4383L46.9005 67.56L47 68.05ZM45 73L45.3153 73.3881L45.5 73.238V73H45ZM37 79.5H36.5V80.5505L37.3153 79.8881L37 79.5ZM37 50.5H37.5V50H37V50.5ZM34 50.5H33.5V51H34V50.5ZM34 43V42.5H33.5V43H34ZM45 43H45.5V42.5H45V43ZM47 59.8293L46.8334 60.3007L47.5 60.5363V59.8293H47ZM47 39.0649H47.5V38.5649H47V39.0649ZM44 39.0649H43.5V39.5649H44V39.0649ZM44 30.5V30H43.5V30.5H44ZM56 30.5H56.5V30H56V30.5ZM56 60H55.5V60.5H56V60ZM72.5 60V60.5H73V60H72.5ZM72.5 53V52.5H72V53H72.5ZM81.5 53H82V52.5H81.5V53ZM81.5 59.8766H81V60.5037L81.6114 60.364L81.5 59.8766ZM82.218 59.6476L82.0267 59.1857L82.0267 59.1857L82.218 59.6476ZM83.6744 58.6745L84.028 59.028L84.028 59.028L83.6744 58.6745ZM84.6476 57.218L85.1096 57.4093L85.1096 57.4093L84.6476 57.218ZM84.6476 53.782L85.1096 53.5907L85.1096 53.5907L84.6476 53.782ZM84.5589 53.5817L84.243 53.1941L83.9395 53.4414L84.1068 53.7953L84.5589 53.5817ZM90.8346 48.4681L91.2479 48.1869L90.9413 47.7362L90.5187 48.0805L90.8346 48.4681ZM92.0485 50.7165L92.5104 50.5251L92.5104 50.5251L92.0485 50.7165ZM92.0485 60.2835L91.5866 60.0922L91.5866 60.0922L92.0485 60.2835ZM89.6652 64L89.2986 63.66L88.9832 64L89.2986 64.34L89.6652 64ZM89.3388 81.3388L89.6924 81.6924L89.6924 81.6924L89.3388 81.3388ZM83 84.7475H82.5V85.3599L83.1 85.2374L83 84.7475ZM83 76.2289L82.7216 75.8136L82.5 75.9621V76.2289H83ZM83.6745 69.3256L83.3209 69.6791L83.3209 69.6791L83.6745 69.3256ZM81.5 68.1234L81.6114 67.636L81 67.4963V68.1234H81.5ZM81.5 88H81V88.5H81.5V88ZM44 96.5H43.5V97H44V96.5ZM56 96.5V97H56.5V96.5H56ZM44 87.9351V87.4351H43.5V87.9351H44ZM47 87.9351V88.4351H47.5V87.9351H47ZM47 84.5L46.6799 84.1159L46.5 84.2658V84.5H47ZM56 77L56 76.5L55.819 76.5L55.6799 76.6159L56 77ZM70 77H70.5V76.5L70 76.5L70 77ZM70 85V85.5H70.5V85H70ZM56 85V84.5H55.5V85H56ZM87 97H95V96H87V97ZM87.5 100V96.5H86.5V100H87.5ZM41 100.5H87V99.5H41V100.5ZM40.5 87V100H41.5V87H40.5ZM44.6842 83.3531L40.6842 86.6124L41.3158 87.3876L45.3158 84.1284L44.6842 83.3531ZM44.5 75.2222V83.7407H45.5V75.2222H44.5ZM33.3158 85.3876L45.3158 75.6098L44.6842 74.8346L32.6842 84.6124L33.3158 85.3876ZM33.5 108V85H32.5V108H33.5ZM95 107.5H33V108.5H95V107.5ZM94.5 96.5V108H95.5V96.5H94.5ZM86.6842 40.6124L83.6339 43.0978L84.2655 43.8731L87.3158 41.3876L86.6842 40.6124ZM86.5 28V41H87.5V28H86.5ZM41 28.5H87V27.5H41V28.5ZM41.5 31V28H40.5V31H41.5ZM33 31.5H41V30.5H33V31.5ZM32.5 20V31H33.5V20H32.5ZM95 19.5H33V20.5H95V19.5ZM95.5 43V20H94.5V43H95.5ZM90.162 47.587L95.3158 43.3876L94.6842 42.6124L89.5303 46.8118L90.162 47.587ZM90.23 46.8787C90.2266 46.8749 90.2233 46.8711 90.2199 46.8673L89.4724 47.5316C89.4754 47.5349 89.4784 47.5383 89.4814 47.5417L90.23 46.8787ZM83.9465 52.67L90.1715 47.5978L89.5398 46.8226L83.3149 51.8948L83.9465 52.67ZM82.0267 51.8143C82.4938 52.0078 82.9198 52.2883 83.282 52.6408L83.9794 51.924C83.5264 51.4833 82.9936 51.1325 82.4093 50.8904L82.0267 51.8143ZM80.5 51.5106C81.0239 51.5106 81.5426 51.6138 82.0267 51.8143L82.4093 50.8904C81.804 50.6397 81.1552 50.5106 80.5 50.5106V51.5106ZM80 51V51.0106H81V51H80ZM74.7273 51.5H80.5V50.5H74.7273V51.5ZM58 51.5H74.7273V50.5H58V51.5ZM57.5 43V51H58.5V43H57.5ZM72.5 42.5H58V43.5H72.5V42.5ZM73 43V30.5H72V43H73ZM72.5 31H84.5V30H72.5V31ZM84 30.5V39.0649H85V30.5H84ZM84.5 38.5649H81.5V39.5649H84.5V38.5649ZM81 39.0649V43.0401H82V39.0649H81ZM84.0877 43.0049C83.2563 42.7662 82.4029 42.6109 81.54 42.5417L81.46 43.5385C82.2565 43.6024 83.0443 43.7457 83.8117 43.966L84.0877 43.0049ZM85 96.5V88H84V96.5H85ZM72.5 97H84.5V96H72.5V97ZM72 86.5V96.5H73V86.5H72ZM72 68V86.5H73V68H72ZM56 68.5H72.5V67.5H56V68.5ZM56.5 74.7778V68H55.5V74.7778H56.5ZM47.3131 82.3947L56.3131 75.1676L55.6869 74.3879L46.6869 81.615L47.3131 82.3947ZM46.5 68.05V82.0048H47.5V68.05H46.5ZM45.5 70.5C45.5 69.533 46.1868 68.7253 47.0995 68.54L46.9005 67.56C45.531 67.838 44.5 69.0481 44.5 70.5H45.5ZM45.5 73V70.5H44.5V73H45.5ZM37.3153 79.8881L45.3153 73.3881L44.6847 72.6119L36.6847 79.1119L37.3153 79.8881ZM36.5 50.5V79.5H37.5V50.5H36.5ZM34 51H37V50H34V51ZM33.5 43V50.5H34.5V43H33.5ZM37 42.5H34V43.5H37V42.5ZM45 42.5H37V43.5H45V42.5ZM45.5 56.75V43H44.5V56.75H45.5ZM45.5 57V56.75H44.5V57H45.5ZM47.1666 59.3579C46.195 59.0144 45.5 58.0877 45.5 57H44.5C44.5 58.5247 45.4747 59.8205 46.8334 60.3007L47.1666 59.3579ZM46.5 39.0649V59.8293H47.5V39.0649H46.5ZM44 39.5649H47V38.5649H44V39.5649ZM43.5 30.5V39.0649H44.5V30.5H43.5ZM56 30H44V31H56V30ZM56.5 60V30.5H55.5V60H56.5ZM58.5 59.5H56V60.5H58.5V59.5ZM72.5 59.5H58.5V60.5H72.5V59.5ZM72 53V60H73V53H72ZM81.5 52.5H72.5V53.5H81.5V52.5ZM82 59.8766V53H81V59.8766H82ZM81.6114 60.364C81.8834 60.3018 82.1503 60.2168 82.4093 60.1096L82.0267 59.1857C81.8196 59.2715 81.6061 59.3394 81.3886 59.3891L81.6114 60.364ZM82.4093 60.1096C83.0147 59.8588 83.5647 59.4913 84.028 59.028L83.3209 58.3209C82.9505 58.6913 82.5107 58.9852 82.0267 59.1857L82.4093 60.1096ZM84.028 59.028C84.4913 58.5647 84.8588 58.0147 85.1096 57.4093L84.1857 57.0267C83.9852 57.5107 83.6913 57.9505 83.3209 58.3209L84.028 59.028ZM85.1096 57.4093C85.3603 56.804 85.4893 56.1552 85.4893 55.5H84.4893C84.4893 56.0239 84.3862 56.5427 84.1857 57.0267L85.1096 57.4093ZM85.4893 55.5C85.4893 54.8448 85.3603 54.196 85.1096 53.5907L84.1857 53.9733C84.3862 54.4574 84.4893 54.9761 84.4893 55.5H85.4893ZM85.1096 53.5907C85.0785 53.5156 85.0456 53.4413 85.0109 53.368L84.1068 53.7953C84.1345 53.854 84.1608 53.9133 84.1857 53.9733L85.1096 53.5907ZM84.8747 53.9693L91.1504 48.8558L90.5187 48.0805L84.243 53.1941L84.8747 53.9693ZM90.4212 48.7494C90.8812 49.4256 91.2721 50.1486 91.5866 50.9078L92.5104 50.5251C92.1698 49.7026 91.7463 48.9194 91.2479 48.1869L90.4212 48.7494ZM91.5866 50.9078C92.1896 52.3637 92.5 53.9241 92.5 55.5H93.5C93.5 53.7928 93.1637 52.1023 92.5104 50.5251L91.5866 50.9078ZM92.5 55.5C92.5 57.0759 92.1896 58.6363 91.5866 60.0922L92.5104 60.4749C93.1637 58.8977 93.5 57.2072 93.5 55.5H92.5ZM91.5866 60.0922C91.0412 61.4089 90.266 62.6168 89.2986 63.66L90.0318 64.34C91.0799 63.2099 91.9196 61.9013 92.5104 60.4749L91.5866 60.0922ZM89.2986 64.34C91.3527 66.5547 92.5 69.4682 92.5 72.5H93.5C93.5 69.2156 92.2571 66.0593 90.0318 63.66L89.2986 64.34ZM92.5 72.5C92.5 75.6826 91.2357 78.7348 88.9853 80.9853L89.6924 81.6924C92.1304 79.2544 93.5 75.9478 93.5 72.5H92.5ZM88.9853 80.9853C87.3092 82.6614 85.1883 83.7905 82.9 84.2576L83.1 85.2374C85.5789 84.7313 87.8766 83.5082 89.6924 81.6924L88.9853 80.9853ZM83.5 84.7475V76.2289H82.5V84.7475H83.5ZM83.2784 76.6442C83.5458 76.4649 83.7971 76.2589 84.028 76.028L83.3209 75.3209C83.1362 75.5056 82.9353 75.6703 82.7216 75.8136L83.2784 76.6442ZM84.028 76.028C84.9637 75.0923 85.4894 73.8233 85.4894 72.5H84.4894C84.4894 73.558 84.0691 74.5727 83.3209 75.3209L84.028 76.028ZM85.4894 72.5C85.4894 71.1767 84.9637 69.9077 84.028 68.972L83.3209 69.6791C84.0691 70.4273 84.4894 71.442 84.4894 72.5H85.4894ZM84.028 68.972C83.3589 68.3029 82.5193 67.8435 81.6114 67.636L81.3886 68.6109C82.1146 68.7768 82.7859 69.1441 83.3209 69.6791L84.028 68.972ZM82 86.5V68.1234H81V86.5H82ZM82 88V86.5H81V88H82ZM84.5 87.5H81.5V88.5H84.5V87.5ZM44 97H56V96H44V97ZM43.5 87.9351V96.5H44.5V87.9351H43.5ZM47 87.4351H44V88.4351H47V87.4351ZM46.5 84.5V87.9351H47.5V84.5H46.5ZM55.6799 76.6159L46.6799 84.1159L47.3201 84.8841L56.3201 77.3841L55.6799 76.6159ZM70 76.5L56 76.5L56 77.5L70 77.5L70 76.5ZM70.5 85V77H69.5V85H70.5ZM56 85.5H70V84.5H56V85.5ZM56.5 96.5V85H55.5V96.5H56.5Z" fill="#959595" fill-opacity="0.7" mask="url(#path-2-inside-1_15_25)"/>
</g>
<defs>
<filter id="filter0_ddii_15_25" x="28" y="15" width="73" height="99" filterUnits="userSpaceOnUse" color-interpolation-filters="sRGB">
<feFlood flood-opacity="0" result="BackgroundImageFix"/>
<feColorMatrix in="SourceAlpha" type="matrix" values="0 0 0 0 0 0 0 0 0 0 0 0 0 0 0 0 0 0 127 0" result="hardAlpha"/>
<feOffset dx="2" dy="2"/>
<feGaussianBlur stdDeviation="2"/>
<feColorMatrix type="matrix" values="0 0 0 0 0 0 0 0 0 0 0 0 0 0 0 0 0 0 0.26 0"/>
<feBlend mode="normal" in2="BackgroundImageFix" result="effect1_dropShadow_15_25"/>
<feColorMatrix in="SourceAlpha" type="matrix" values="0 0 0 0 0 0 0 0 0 0 0 0 0 0 0 0 0 0 127 0" result="hardAlpha"/>
<feOffset dx="-1" dy="-1"/>
<feGaussianBlur stdDeviation="2"/>
<feColorMatrix type="matrix" values="0 0 0 0 1 0 0 0 0 1 0 0 0 0 1 0 0 0 0.36 0"/>
<feBlend mode="normal" in2="effect1_dropShadow_15_25" result="effect2_dropShadow_15_25"/>
<feBlend mode="normal" in="SourceGraphic" in2="effect2_dropShadow_15_25" result="shape"/>
<feColorMatrix in="SourceAlpha" type="matrix" values="0 0 0 0 0 0 0 0 0 0 0 0 0 0 0 0 0 0 127 0" result="hardAlpha"/>
<feOffset dx="-4" dy="-4"/>
<feGaussianBlur stdDeviation="4"/>
<feComposite in2="hardAlpha" operator="arithmetic" k2="-1" k3="1"/>
<feColorMatrix type="matrix" values="0 0 0 0 1 0 0 0 0 1 0 0 0 0 1 0 0 0 0.3 0"/>
<feBlend mode="normal" in2="shape" result="effect3_innerShadow_15_25"/>
<feColorMatrix in="SourceAlpha" type="matrix" values="0 0 0 0 0 0 0 0 0 0 0 0 0 0 0 0 0 0 127 0" result="hardAlpha"/>
<feOffset dx="4" dy="4"/>
<feGaussianBlur stdDeviation="4"/>
<feComposite in2="hardAlpha" operator="arithmetic" k2="-1" k3="1"/>
<feColorMatrix type="matrix" values="0 0 0 0 0.2 0 0 0 0 0.2 0 0 0 0 0.2 0 0 0 0.1 0"/>
<feBlend mode="normal" in2="effect3_innerShadow_15_25" result="effect4_innerShadow_15_25"/>
</filter>
<linearGradient id="paint0_linear_15_25" x1="20.5" y1="3" x2="102.5" y2="118.5" gradientUnits="userSpaceOnUse">
<stop stop-color="#919191"/>
<stop offset="1" stop-color="#333333"/>
</linearGradient>
<linearGradient id="paint1_linear_15_25" x1="33" y1="17.5" x2="95" y2="108" gradientUnits="userSpaceOnUse">
<stop stop-color="white"/>
<stop offset="1" stop-color="#353535"/>
</linearGradient>
</defs>
</svg>
