<svg width="433" height="128" viewBox="0 0 433 128" fill="none" xmlns="http://www.w3.org/2000/svg">
<g clip-path="url(#clip0_109_41)">
<path fill-rule="evenodd" clip-rule="evenodd" d="M75 96.5H67V100H21V87L25 83.7407V75.2222L13 85V108H75V96.5ZM54.7273 51L67 41V28H21V31H13V20H75V43L65.1818 51H54.7273Z" fill="#444444"/>
<path d="M64.5 30.5H52.5V43.5H61.5V39.0649H64.5L64.5 30.5Z" fill="#444444"/>
<path d="M64.5 88V96.5H52.5V86.5L52.5 53H61.5L61.5 86.5V88H64.5Z" fill="#444444"/>
<path d="M24 39.0649V30.5H36V74.7778L27 82.0048V39.0649H24Z" fill="#444444"/>
<path d="M24 96.5H36V77L27 84.5V87.9351H24V96.5Z" fill="#444444"/>
<path d="M25 43H17H14V50.5H17V79.5L25 73V43Z" fill="#444444"/>
<path d="M28 60H38.5H57.3185C59.5276 60 61.3185 61.7909 61.3185 64C61.3185 66.2091 59.5276 68 57.3185 68H27.5C26.1193 68 25 69.1193 25 70.5C25 71.8807 23.8807 73 22.5 73H22.25C20.7312 73 19.5 71.7688 19.5 70.25V56.75C19.5 55.2312 20.7312 54 22.25 54C23.7688 54 25 55.2312 25 56.75V57C25 58.6569 26.3431 60 28 60Z" fill="#444444"/>
<path d="M50 77H36V85H50V77Z" fill="#444444"/>
<path fill-rule="evenodd" clip-rule="evenodd" d="M69.8557 47.2102C69.6892 47.0223 69.5168 46.8392 69.3388 46.6612C68.1781 45.5004 66.8001 44.5797 65.2835 43.9515C63.9211 43.3872 62.4709 43.0689 61 43.01V43H60.5H38V51H60.5V51.0107C61.0896 51.0107 61.6733 51.1268 62.218 51.3524C62.7437 51.5702 63.2231 51.8858 63.6307 52.2824L69.8557 47.2102ZM56.6818 60H60.5V59.9894C61.0895 59.9894 61.6733 59.8732 62.218 59.6476C62.7627 59.422 63.2576 59.0913 63.6744 58.6745C64.0913 58.2576 64.422 57.7627 64.6476 57.218C64.8732 56.6733 64.9894 56.0896 64.9894 55.5C64.9894 54.9105 64.8732 54.3267 64.6476 53.782C64.6196 53.7144 64.59 53.6477 64.5589 53.5817L70.8346 48.4681C71.3138 49.1725 71.7209 49.9256 72.0485 50.7165C72.6767 52.233 73 53.8585 73 55.5C73 57.1415 72.6767 58.767 72.0485 60.2835C71.4804 61.6551 70.673 62.9133 69.6652 64C71.8049 66.307 73 69.3419 73 72.5C73 75.8152 71.683 78.9946 69.3388 81.3388C67.5929 83.0848 65.3836 84.2609 63 84.7475V76.2289C63.2406 76.0676 63.4667 75.8823 63.6745 75.6745C64.5164 74.8325 64.9894 73.6907 64.9894 72.5C64.9894 71.3094 64.5164 70.1675 63.6745 69.3256C62.8325 68.4836 61.6907 68.0107 60.5 68.0107L60.5 68L53 68V63L56.6818 60ZM54.1591 60H53V60.9444L54.1591 60Z" fill="#444444"/>
<path d="M97.8125 66.6875H110.094L111.969 64.4375V29.8438L110.094 27.0312H97.8125V66.6875ZM90.6875 74V20.2812H111.781L120.406 32.75V62.4688L110.844 74H90.6875ZM159.406 55.625V66.9688H144.312V61.5312H137.188V74H167V50H156.125L166.812 39.125V31.8125L137.188 31.7188V38.75H155.656L144.875 50V55.625H159.406ZM206 49.0625V38.4688H183.781V31.7188H213.5V74H183.969V49.0625H206ZM206 55.9062H190.906V67.0625H206V55.9062ZM246.688 38.6562L236.375 38.75V74H228.875V31.7188H253.812V47.0938H246.688V38.6562ZM274.344 66.6875H286.625L288.5 64.4375V29.8438L286.625 27.0312H274.344V66.6875ZM267.219 74V20.2812H288.312L296.938 32.75V62.4688L287.375 74H267.219ZM319.812 56.75V67.25H342.031V74H312.312V31.7188H341.844V56.75H319.812ZM319.812 49.8125H335V38.6562H319.812V49.8125ZM379.625 49.0625V38.4688H357.406V31.7188H387.125V74H357.594V49.0625H379.625ZM379.625 55.9062H364.531V67.0625H379.625V55.9062ZM420.312 38.6562L410 38.75V74H402.5V31.7188H427.438V47.0938H420.312V38.6562Z" fill="#444444"/>
<path d="M97.3457 102V105.311H90.4023V107.391H99.6895V88.7871H90.4609V102H97.3457ZM97.3457 99.832H92.6289V90.9551H97.3457V99.832ZM109.654 88.8164V102H111.881V88.7871L109.654 88.8164ZM109.654 82.1953V86.0918H111.881V82.1953H109.654ZM129.902 102H124.511V90.8965H121.816V88.7871H124.511V84.8906H126.738V88.7871H129.902V90.8965H126.738V99.8906H129.902V102ZM149.154 102V88.7871H142.093V82.1953H139.867V102H142.093V90.8965H146.81V102H149.154ZM168.406 88.7871V102H159.119V88.7871H161.345V99.8906H166.062V88.7871H168.406ZM180.597 88.7871H187.657V102H178.37V82.1953H180.597V88.7871ZM180.597 99.832L185.314 99.8027V90.8965H180.597V99.832ZM197.622 98.3965V102H199.849V98.3965H197.622ZM216.874 90.9844H212.128V99.8906H218.837V102H209.784V88.7871H219.071V93.5918H216.874V90.9844ZM229.036 102V88.7871H238.323V102H229.036ZM236.126 90.9551L231.38 90.9844V99.8906H236.126V90.9551ZM257.575 102H255.172V90.8965H250.514V102H248.288V88.7871H264.489V102H262.145V90.8965H257.575V102ZM276.973 82.2246L271.934 105.984L274.102 106.482L279.141 82.7227L276.973 82.2246ZM288.813 99.7148H292.651L293.237 99.0117V88.2012L292.651 87.3223H288.813V99.7148ZM286.586 102V85.2129H293.178L295.873 89.1094V98.3965L292.885 102H286.586ZM313.221 96.2578V99.8027H308.504V98.1035H306.277V102H315.594V94.5H312.195L315.535 91.1016V88.8164L306.277 88.7871V90.9844H312.049L308.68 94.5V96.2578H313.221ZM332.941 94.207V90.8965H325.998V88.7871H335.285V102H326.057V94.207H332.941ZM332.941 96.3457H328.225V99.832H332.941V96.3457ZM350.816 90.9551L347.594 90.9844V102H345.25V88.7871H353.043V93.5918H350.816V90.9551ZM364.619 99.7148H368.457L369.043 99.0117V88.2012L368.457 87.3223H364.619V99.7148ZM362.392 102V85.2129H368.984L371.679 89.1094V98.3965L368.691 102H362.392ZM383.988 96.6094V99.8906H390.931V102H381.644V88.7871H390.872V96.6094H383.988ZM383.988 94.4414H388.734V90.9551H383.988V94.4414ZM407.839 94.207V90.8965H400.896V88.7871H410.183V102H400.954V94.207H407.839ZM407.839 96.3457H403.122V99.832H407.839V96.3457ZM425.714 90.9551L422.491 90.9844V102H420.148V88.7871H427.941V93.5918H425.714V90.9551Z" fill="#444444"/>
</g>
<defs>
<clipPath id="clip0_109_41">
<rect width="433" height="128" fill="white"/>
</clipPath>
</defs>
</svg>
