<?xml version="1.0" standalone="no"?>
<!DOCTYPE svg PUBLIC "-//W3C//DTD SVG 20010904//EN"
 "http://www.w3.org/TR/2001/REC-SVG-20010904/DTD/svg10.dtd">
<svg version="1.0" xmlns="http://www.w3.org/2000/svg"
 width="700.000000pt" height="700.000000pt" viewBox="0 0 700.000000 700.000000"
 preserveAspectRatio="xMidYMid meet">
<metadata>
Created by potrace 1.14, written by Peter Selinger 2001-2017
</metadata>
<g transform="translate(0.000000,700.000000) scale(0.100000,-0.100000)"
fill="#000000" stroke="none">
<path d="M3796 6728 c-2 -7 -14 -83 -25 -168 -22 -156 -24 -169 -39 -271 l-9
-57 76 -12 c42 -7 85 -13 97 -15 13 -2 40 14 76 46 54 48 56 51 64 117 4 37 8
69 9 72 7 28 18 129 16 145 -2 11 -16 45 -31 76 l-29 56 -89 12 c-110 14 -112
14 -116 -1z m158 -71 c29 -5 36 -30 26 -93 -5 -32 -12 -79 -15 -104 -27 -200
-24 -195 -91 -180 -21 5 -40 8 -43 8 -23 -2 -32 4 -27 20 3 9 8 42 11 72 3 30
8 62 10 70 2 8 7 38 10 65 6 57 15 112 21 137 5 17 26 18 98 5z"/>
<path d="M3069 6726 c-2 -2 -29 -7 -59 -10 -128 -15 -130 -16 -126 -45 4 -25
16 -115 21 -156 2 -11 8 -54 14 -95 6 -41 13 -93 16 -115 10 -88 18 -125 24
-121 3 2 33 6 66 10 60 6 118 16 121 19 67 101 75 120 69 166 -3 25 -12 90
-19 143 -12 91 -15 99 -52 141 -39 44 -69 69 -75 63z m19 -78 c5 -7 13 -38 17
-68 3 -30 10 -80 15 -110 19 -116 22 -170 10 -185 -7 -8 -15 -13 -19 -11 -3 2
-25 1 -49 -4 -35 -6 -44 -4 -51 9 -5 9 -9 18 -9 21 1 6 -12 112 -18 155 -2 17
-6 44 -8 60 -3 17 -7 53 -11 80 l-7 51 43 3 c24 1 45 4 48 7 8 8 29 4 39 -8z"/>
<path d="M4310 6639 c0 -11 -95 -317 -125 -404 -28 -82 -40 -74 226 -155 24
-7 27 -5 37 26 l10 34 -101 32 c-56 17 -103 32 -105 33 -5 4 59 195 66 195 4
0 49 -14 100 -30 51 -17 97 -28 101 -26 5 3 11 17 13 31 5 24 0 26 -90 56 -53
16 -99 32 -103 35 -6 3 16 90 27 102 1 2 48 -11 104 -28 56 -17 103 -30 105
-28 1 2 5 15 9 29 7 31 15 27 -137 75 -118 37 -137 40 -137 23z"/>
<path d="M2610 6629 c-13 -6 -26 -11 -27 -13 -3 -2 30 -114 72 -246 5 -16 -32
15 -106 91 -113 115 -114 116 -147 106 -24 -8 -31 -14 -27 -26 8 -19 61 -191
111 -358 37 -120 38 -122 63 -116 14 3 29 9 33 12 4 4 -12 72 -37 151 -25 79
-43 145 -41 147 1 2 56 -53 122 -122 105 -110 122 -125 144 -120 14 4 26 8 27
9 2 1 -3 22 -11 47 -8 24 -31 98 -51 164 -71 232 -88 285 -94 284 -3 0 -17 -5
-31 -10z"/>
<path d="M4711 6246 c-40 -134 -71 -248 -68 -253 7 -11 126 -68 130 -62 2 2
46 60 98 129 51 69 96 127 99 130 12 11 110 148 110 154 0 3 -17 14 -37 25
l-38 19 -129 -183 c-79 -113 -133 -182 -141 -179 -9 4 6 60 56 211 38 113 69
210 69 214 0 9 -53 39 -67 39 -4 0 -41 -110 -82 -244z"/>
<path d="M2015 6395 c-66 -35 -121 -64 -123 -64 -6 -2 229 -461 236 -460 4 0
62 28 129 62 l122 62 -16 32 c-14 29 -17 31 -37 21 -11 -7 -23 -13 -26 -13 -3
0 -16 -7 -30 -15 -14 -8 -46 -24 -73 -37 l-47 -22 -45 92 -45 92 95 48 c52 26
95 50 95 53 0 5 -19 45 -25 52 -2 2 -44 -17 -94 -42 -50 -25 -94 -46 -99 -46
-5 0 -18 21 -29 48 l-21 47 97 50 98 50 -16 27 c-9 16 -18 28 -21 27 -3 0 -59
-29 -125 -64z"/>
<path d="M5194 6113 c-48 -65 -113 -154 -145 -198 -32 -44 -63 -85 -68 -91 -6
-8 24 -36 96 -88 58 -43 112 -80 120 -83 14 -5 42 22 43 43 0 9 -72 65 -146
115 l-24 16 58 81 c31 45 61 81 65 82 4 0 42 -25 83 -56 42 -30 81 -57 87 -59
7 -3 20 6 30 20 l17 24 -90 64 -89 64 30 42 c35 46 44 49 79 21 14 -11 50 -38
80 -61 l54 -40 18 23 c10 13 18 26 18 29 0 3 -37 32 -82 64 -46 32 -97 69
-115 83 l-32 24 -87 -119z"/>
<path d="M1764 5926 c-99 -69 -101 -71 -87 -93 9 -13 20 -23 25 -23 14 0 198
130 198 140 0 4 -8 17 -17 28 -18 19 -19 19 -119 -52z"/>
<path d="M1298 5893 c-35 -32 -82 -77 -106 -99 l-43 -40 20 -23 c23 -26 25
-25 84 28 19 17 30 22 35 14 4 -6 61 -68 127 -138 66 -70 131 -140 145 -155
25 -28 26 -28 48 -10 12 10 22 22 22 27 0 11 -63 80 -263 289 l-39 42 36 32
c20 18 36 36 36 40 0 4 -9 17 -20 30 l-19 22 -63 -59z"/>
<path d="M5521 5720 l-184 -180 19 -22 c10 -12 55 -59 100 -105 l80 -83 24 25
c27 28 29 23 -55 109 -80 81 -88 59 91 232 l159 154 -25 24 -25 25 -184 -179z"/>
<path d="M2025 5327 c1 -139 2 -257 3 -263 1 -7 65 -10 190 -10 l187 0 0 70 0
71 1095 0 1095 0 0 -309 0 -308 -73 -59 c-56 -46 -77 -58 -95 -54 -33 9 -59
13 -78 14 -13 1 -15 17 -15 96 l0 95 71 0 71 0 0 204 0 204 -285 -1 -286 -2 0
-296 0 -296 -325 0 c-179 -1 -334 -2 -346 -2 -21 -1 -21 -5 -20 -188 l1 -188
571 -5 570 -5 41 -27 41 -27 143 116 c79 64 146 119 149 123 3 3 28 24 55 45
28 22 52 42 55 45 3 3 30 25 60 49 30 25 60 50 66 57 7 9 10 184 10 556 l-1
543 -1476 2 -1476 1 2 -251z"/>
<path d="M967 5542 c-9 -10 -17 -23 -17 -29 0 -6 26 -30 58 -54 31 -23 59 -45
62 -49 3 -3 25 -20 49 -38 25 -18 38 -32 30 -32 -9 0 -78 11 -154 25 -130 24
-138 25 -156 9 -11 -9 -19 -23 -19 -30 0 -11 215 -182 370 -295 l35 -25 23 28
c13 15 20 28 15 28 -4 0 -19 10 -33 23 -14 12 -61 49 -104 82 -122 93 -116 86
-76 80 19 -3 46 -8 60 -10 38 -8 66 -13 163 -31 83 -15 89 -15 107 1 11 10 17
21 15 26 -7 10 -386 300 -400 306 -6 2 -19 -5 -28 -15z"/>
<path d="M5995 5452 c-179 -124 -321 -225 -334 -237 -11 -11 0 -32 68 -128
l82 -116 137 96 c75 53 170 119 210 147 39 27 72 54 72 58 0 11 -152 228 -160
228 -3 0 -37 -22 -75 -48z m104 -99 c32 -45 38 -60 28 -69 -6 -7 -77 -57 -156
-113 l-144 -100 -39 55 c-21 31 -38 60 -36 65 2 6 297 218 305 219 1 0 20 -26
42 -57z"/>
<path d="M680 5130 c0 -5 -27 -59 -61 -121 -33 -61 -58 -116 -56 -123 3 -7 25
-23 49 -34 23 -12 75 -39 113 -60 237 -130 283 -152 292 -139 17 21 123 225
123 235 0 5 -28 24 -62 42 -35 18 -112 60 -173 93 -181 99 -189 103 -207 110
-10 3 -18 2 -18 -3z m163 -156 c67 -36 141 -77 164 -90 l42 -24 -32 -60 c-18
-33 -36 -60 -40 -60 -5 0 -46 20 -90 44 -45 25 -116 63 -157 85 -41 22 -76 43
-77 48 -3 9 55 123 63 123 3 0 60 -30 127 -66z"/>
<path d="M2549 5067 c0 -17 0 -303 0 -354 l1 -43 70 0 70 0 0 -495 c0 -469 -1
-495 -17 -486 -27 14 -60 53 -69 81 -4 14 -8 177 -8 363 -1 242 -4 340 -13
345 -8 5 -460 8 -505 3 -5 -1 -8 -80 -8 -176 0 -133 3 -175 13 -176 6 -1 39
-2 72 -3 l59 -1 0 -687 c0 -379 2 -688 4 -688 2 0 61 46 131 102 69 57 131
106 136 110 6 5 30 26 55 48 25 22 47 40 50 40 3 0 6 37 7 82 2 88 17 121 64
145 l24 12 5 -331 5 -330 210 169 210 170 3 161 2 162 390 0 c305 0 390 -3
391 -12 1 -7 3 -308 4 -668 1 -360 3 -660 4 -665 1 -7 93 -10 279 -9 152 1
280 2 283 3 3 0 5 91 5 201 l0 200 -71 0 -71 0 0 470 c0 528 -5 498 73 441 63
-46 88 -94 88 -171 -1 -71 -16 -110 -63 -158 l-27 -28 0 -194 1 -195 32 1 c78
4 230 101 307 197 91 112 126 208 131 353 5 146 -30 263 -111 374 -19 26 -35
51 -35 54 0 4 13 24 29 44 141 177 159 467 41 660 l-20 33 -28 -20 c-15 -11
-81 -65 -147 -120 -89 -73 -119 -103 -116 -117 12 -62 4 -141 -19 -181 -23
-42 -75 -85 -116 -97 -20 -6 -20 -3 -20 150 1 86 -1 159 -4 163 -3 4 -99 7
-215 7 l-210 -1 0 -165 0 -165 -393 -1 -392 -2 0 703 0 702 -285 1 c-212 0
-285 -2 -286 -11z"/>
<path d="M6272 5025 c-35 -17 -132 -65 -217 -106 -158 -75 -169 -86 -142 -123
12 -17 20 -15 115 33 l102 51 45 -90 c25 -49 46 -90 48 -90 1 0 59 28 129 63
l127 62 -57 117 c-37 77 -62 118 -72 117 -8 -1 -43 -16 -78 -34z m91 -109 l26
-55 -61 -30 c-34 -17 -66 -31 -73 -31 -6 0 -23 24 -37 53 l-26 52 62 32 c33
18 66 32 71 33 6 0 23 -24 38 -54z"/>
<path d="M412 4518 c-23 -68 -42 -126 -42 -129 0 -4 10 -9 23 -12 19 -4 403
-134 448 -152 12 -5 20 2 28 26 6 18 11 33 11 34 0 1 -49 19 -109 39 -81 28
-108 41 -104 52 3 8 8 14 12 14 5 0 110 18 201 34 14 3 31 5 38 5 12 1 20 17
36 68 6 19 4 21 -16 17 -13 -2 -36 -6 -53 -9 -16 -2 -63 -10 -102 -18 -40 -8
-75 -12 -77 -10 -2 3 2 20 10 39 8 19 13 34 11 34 -2 0 -61 20 -131 45 -71 25
-131 45 -135 45 -4 0 -26 -55 -49 -122z m151 11 c34 -11 65 -24 69 -28 4 -4
-1 -31 -12 -61 -11 -30 -20 -56 -20 -57 0 -1 -34 10 -76 24 -61 20 -74 28 -69
42 7 15 22 59 31 89 4 16 4 16 77 -9z"/>
<path d="M6333 4506 c-133 -39 -244 -73 -247 -76 -2 -3 13 -63 34 -135 37
-128 39 -130 66 -128 35 3 45 19 32 52 -14 37 -49 163 -46 166 6 4 176 55 186
55 5 0 22 -45 38 -100 24 -84 32 -100 49 -100 44 0 45 11 15 115 -16 54 -27
102 -25 106 9 13 98 31 104 20 4 -5 17 -51 31 -100 20 -77 27 -91 45 -91 36 0
45 13 35 50 -14 54 -68 231 -72 234 -1 2 -112 -29 -245 -68z"/>
<path d="M309 4132 c-1 -8 -4 -28 -27 -159 -10 -56 -16 -107 -13 -112 3 -5 26
-12 51 -15 25 -3 135 -21 245 -40 110 -18 203 -31 206 -27 4 3 9 18 13 33 5
23 2 27 -22 32 -29 6 -92 16 -129 21 -54 7 -108 18 -114 21 -4 2 -3 21 1 41 5
21 11 56 14 78 3 22 8 52 11 66 4 21 1 28 -18 33 -41 11 -44 7 -57 -81 -18
-115 -18 -114 -24 -120 -2 -3 -28 -2 -56 2 l-51 7 6 41 c4 23 10 58 14 77 4
19 7 50 7 69 -1 29 -5 34 -28 37 -16 1 -28 0 -29 -4z"/>
<path d="M6637 4053 c-1 0 -27 -4 -57 -8 -30 -3 -107 -12 -170 -20 -105 -13
-183 -22 -203 -24 -4 -1 -7 -17 -5 -37 2 -34 3 -35 38 -30 19 3 58 8 85 11 28
4 65 8 83 11 58 7 36 -22 -75 -102 l-108 -77 4 -43 c1 -24 6 -44 9 -44 3 0 51
33 107 74 l103 74 6 -39 c6 -39 7 -40 44 -35 20 3 82 10 137 17 55 6 102 16
105 20 3 5 0 53 -7 106 -7 54 -14 110 -15 125 -2 25 -5 27 -41 25 -21 -1 -39
-3 -40 -4z m26 -138 c2 -45 -1 -58 -13 -60 -8 -1 -41 -5 -73 -9 -65 -7 -65 -7
-70 69 l-4 50 71 11 c39 5 75 7 79 3 5 -3 9 -32 10 -64z"/>
<path d="M6252 3451 c-6 -4 -14 -42 -17 -86 -3 -44 -7 -106 -10 -137 -3 -32
-2 -58 2 -59 18 -2 73 -6 158 -13 50 -4 110 -9 135 -11 l45 -4 3 59 c2 32 5
67 7 78 5 30 -54 37 -65 8 -4 -12 -6 -24 -3 -29 8 -13 -8 -46 -20 -41 -12 4
-101 11 -165 13 l-33 1 7 68 c3 37 8 70 10 74 3 4 18 5 34 3 17 -2 76 -7 133
-10 56 -4 111 -9 122 -10 11 -1 36 -3 57 -4 l36 -1 -4 -47 c-2 -27 -6 -76 -8
-110 l-4 -63 34 0 c30 0 34 3 35 28 1 15 3 36 4 47 1 11 5 63 9 116 5 74 4 96
-6 96 -42 1 -217 15 -238 18 -14 2 -72 7 -130 11 -58 3 -107 8 -110 9 -3 2
-11 0 -18 -4z"/>
<path d="M674 3284 c-12 -5 -6 -55 7 -64 4 -3 28 -4 53 -2 45 4 46 5 46 38 l0
34 -47 -1 c-27 0 -53 -3 -59 -5z"/>
<path d="M380 3262 c-5 -2 -10 -18 -10 -37 l0 -32 49 2 c62 3 69 8 63 45 -4
29 -6 30 -48 28 -24 -2 -48 -4 -54 -6z"/>
<path d="M715 3019 c-96 -84 -115 -99 -119 -99 -2 0 -7 16 -10 35 -4 19 -10
35 -14 35 -4 0 -67 -12 -139 -26 -89 -18 -133 -31 -133 -40 0 -7 7 -41 14 -76
8 -35 17 -76 20 -93 14 -76 18 -86 34 -81 17 5 205 44 252 52 14 3 72 15 130
27 l105 22 -3 30 c-2 16 -5 32 -7 34 -2 2 -52 -7 -111 -19 -76 -15 -110 -18
-117 -11 -7 7 -7 14 -1 19 5 5 51 44 102 86 50 43 92 84 92 91 0 25 -13 75
-19 75 -3 -1 -37 -28 -76 -61z m-175 -169 c7 -33 11 -63 8 -65 -2 -2 -34 -11
-71 -18 -50 -11 -69 -12 -76 -3 -15 18 -26 116 -12 116 6 0 12 0 14 1 5 2 112
27 118 28 4 1 12 -26 19 -59z"/>
<path d="M6194 3002 c-3 -15 -10 -47 -16 -72 -19 -86 -20 -100 -4 -100 8 0 21
-3 29 -6 10 -3 18 5 25 25 13 36 3 35 117 10 50 -10 101 -22 115 -25 14 -3 41
-9 60 -13 19 -5 48 -12 63 -15 25 -6 28 -11 25 -39 -3 -29 0 -32 28 -35 l30
-3 22 93 c11 51 20 93 19 94 -1 1 -17 5 -34 9 -28 5 -33 4 -33 -12 -1 -44 -12
-47 -115 -23 -53 12 -102 23 -108 24 -7 1 -46 10 -88 20 -76 17 -77 18 -75 48
1 26 -4 32 -27 39 -24 6 -28 4 -33 -19z"/>
<path d="M2484 2857 c-55 -45 -181 -148 -280 -228 l-180 -147 0 -543 c0 -435
2 -545 12 -549 10 -4 2885 -5 2930 -1 7 1 11 86 11 274 l-1 272 -185 0 c-102
1 -188 -3 -191 -7 -3 -4 -5 -41 -5 -83 l1 -75 -55 -1 c-71 0 -2112 0 -2126 0
-7 1 -10 109 -10 309 l0 307 68 57 c38 32 80 67 95 79 l27 21 0 195 c0 107 -2
196 -5 198 -3 2 -51 -33 -106 -78z"/>
<path d="M3070 2821 c-30 -24 -128 -105 -217 -180 l-163 -135 0 -82 0 -82 -70
2 -70 1 -1 -55 c0 -58 0 -287 1 -330 l0 -26 283 1 282 0 3 273 c1 149 6 272
10 273 4 0 153 1 332 2 l325 2 1 188 0 187 -25 1 c-14 0 -163 1 -331 2 l-305
2 -55 -44z"/>
<path d="M665 2535 c-169 -65 -239 -96 -237 -106 12 -49 97 -249 106 -249 14
0 458 170 469 180 9 8 -12 60 -25 60 -4 0 -47 -16 -95 -35 -48 -19 -94 -35
-103 -35 -10 0 -23 19 -35 53 -10 28 -20 57 -22 63 -3 7 36 27 94 49 54 21
102 42 107 46 6 5 4 20 -5 38 l-14 29 -240 -93z m18 -151 l26 -65 -22 -8 c-12
-5 -40 -16 -62 -25 -65 -25 -65 -25 -91 43 -13 35 -23 66 -20 68 6 6 120 51
132 52 6 1 22 -28 37 -65z"/>
<path d="M6061 2529 c-14 -39 -14 -39 0 -39 10 0 399 -148 407 -155 1 -1 -5
-21 -13 -45 -8 -23 -15 -46 -15 -50 0 -7 51 -33 56 -28 1 2 16 39 32 83 17 44
39 104 51 133 l21 53 -26 9 c-32 13 -49 1 -58 -38 -11 -50 -19 -55 -62 -37
-52 22 -373 145 -378 145 -2 0 -9 -14 -15 -31z"/>
<path d="M5925 2221 l-15 -29 119 -69 119 -69 -35 -62 c-19 -34 -38 -62 -41
-62 -4 0 -59 32 -122 69 l-114 69 -19 -31 c-16 -26 -17 -33 -6 -40 8 -4 108
-64 224 -132 l209 -124 18 27 c10 15 18 29 18 32 0 3 -33 25 -74 50 l-75 44
22 36 c12 20 29 48 39 61 18 27 12 29 120 -35 l47 -27 15 30 16 30 -108 64
c-195 117 -332 197 -337 197 -2 0 -11 -13 -20 -29z"/>
<path d="M1053 2200 l-32 -19 55 -91 c31 -51 53 -94 50 -97 -10 -10 -170 -102
-173 -100 -1 2 -24 41 -51 88 -50 87 -65 99 -96 76 -17 -13 -15 -18 37 -106
l56 -92 -37 -23 c-20 -12 -42 -26 -49 -29 -7 -5 -31 26 -68 88 l-56 95 -24
-16 c-14 -9 -25 -19 -25 -22 0 -9 131 -231 139 -236 4 -3 107 54 229 125 l221
130 -51 87 c-29 48 -61 104 -73 124 l-21 37 -31 -19z"/>
<path d="M5649 1802 c-30 -37 -68 -83 -86 -102 -18 -19 -33 -40 -33 -46 0 -6
34 -39 75 -73 41 -34 80 -68 87 -74 7 -7 54 -46 103 -86 50 -41 98 -82 108
-90 17 -15 21 -14 38 8 10 13 19 27 19 31 0 5 -77 72 -170 150 -187 156 -178
139 -118 205 16 16 28 33 28 38 0 19 30 -2 178 -126 87 -74 164 -137 171 -141
7 -5 21 0 32 10 19 17 26 44 12 44 -5 0 -21 12 -38 28 -16 15 -68 59 -115 97
-47 38 -87 72 -90 75 -6 6 -108 90 -131 108 -13 10 -24 1 -70 -56z"/>
<path d="M1210 1747 c-14 -12 -62 -53 -107 -91 -78 -64 -84 -71 -103 -133 -11
-36 -20 -69 -20 -73 0 -6 93 -123 126 -159 2 -3 148 112 164 130 3 3 58 49
122 103 l118 97 -62 74 -63 75 -75 0 c-64 0 -79 -3 -100 -23z m157 -66 c18
-21 34 -43 35 -48 3 -11 -271 -243 -286 -243 -6 0 -26 21 -44 45 -25 33 -31
48 -24 61 14 25 255 223 272 223 8 0 29 -17 47 -38z"/>
<path d="M5374 1502 c-29 -25 -106 -91 -159 -137 l-24 -20 101 -118 c69 -79
105 -114 112 -107 5 5 13 10 17 10 3 0 34 -34 69 -75 35 -41 66 -75 69 -75 5
0 67 51 160 132 19 17 30 33 25 36 -6 4 -50 54 -99 112 -50 58 -92 107 -95
110 -3 3 -34 39 -69 80 -35 41 -67 76 -70 77 -3 1 -20 -10 -37 -25z m85 -131
c28 -33 51 -63 50 -68 0 -4 -23 -27 -52 -50 l-52 -42 -45 51 c-25 28 -50 56
-57 62 -9 8 1 23 40 58 29 26 55 47 58 48 3 0 29 -27 58 -59z m123 -143 c11
-13 31 -38 45 -55 27 -35 29 -29 -29 -81 l-25 -23 -49 57 -49 57 39 33 c22 19
41 34 44 34 3 0 14 -10 24 -22z"/>
<path d="M1600 1517 c0 -2 -9 -45 -21 -97 -11 -52 -22 -102 -24 -110 -2 -8 -4
-21 -4 -28 -1 -8 -12 -4 -34 12 l-33 25 -92 -107 -93 -107 48 -43 c26 -24 72
-64 101 -90 l53 -46 32 36 c18 20 43 49 56 65 42 49 135 157 158 183 12 14 38
43 57 65 20 22 36 43 36 47 0 4 -12 15 -26 25 -30 19 -18 29 -128 -101 -69
-81 -76 -66 -43 91 l27 127 -27 28 c-23 24 -43 36 -43 25z m-51 -337 c49 -44
50 -37 -21 -117 l-37 -42 -48 43 -47 43 49 56 c28 31 52 57 55 57 3 0 25 -18
49 -40z"/>
<path d="M5020 1222 l-23 -18 28 -42 c15 -23 30 -42 32 -42 3 0 17 7 33 16
l28 17 -31 43 c-17 24 -34 44 -38 44 -4 0 -17 -8 -29 -18z"/>
<path d="M1942 1177 c-18 -29 -80 -128 -137 -221 l-103 -170 46 -29 c141 -90
195 -118 203 -110 5 5 68 104 138 219 l129 209 -22 17 c-11 10 -26 18 -32 18
-5 0 -29 -33 -52 -72 -23 -40 -50 -84 -60 -96 l-19 -24 -57 37 c-36 23 -56 42
-52 50 2 7 27 50 55 95 28 45 51 85 51 89 0 4 -13 14 -28 23 l-28 17 -32 -52z
m4 -279 c29 -18 54 -36 54 -40 0 -6 -63 -110 -76 -127 -1 -2 -30 14 -64 34
l-61 37 27 46 c44 76 48 82 57 82 5 0 33 -15 63 -32z"/>
<path d="M4718 1050 l-117 -60 16 -28 17 -29 88 44 c49 23 91 43 94 43 6 0
164 -327 164 -340 0 -4 -27 -22 -61 -39 l-60 -30 -21 34 c-23 40 -28 42 -56
18 l-21 -18 32 -62 32 -62 125 61 c69 33 127 62 129 64 7 6 -223 464 -234 463
-5 0 -63 -27 -127 -59z"/>
<path d="M2377 948 c-8 -24 -27 -71 -40 -105 l-25 -63 46 -21 c46 -21 47 -21
22 -32 -104 -45 -108 -47 -119 -78 -6 -18 -10 -34 -8 -35 4 -4 256 -104 261
-104 2 0 9 14 15 31 12 34 19 28 -108 79 l-46 18 72 32 c56 25 72 37 76 57 4
21 -1 27 -40 44 -25 10 -48 19 -51 19 -4 0 -13 4 -20 8 -10 7 -9 18 7 55 11
26 24 47 28 47 4 0 34 -10 66 -22 54 -21 58 -25 53 -50 -6 -30 -4 -32 34 -41
23 -6 27 -2 44 45 10 27 14 54 9 58 -10 10 -237 100 -251 100 -6 0 -17 -19
-25 -42z"/>
<path d="M4395 912 c-22 -8 -78 -25 -125 -39 -47 -14 -88 -27 -91 -29 -6 -3
34 -142 112 -397 33 -108 24 -101 99 -81 140 38 200 60 200 73 0 9 -7 39 -16
66 -8 28 -39 130 -69 229 -29 98 -57 182 -62 185 -4 4 -26 1 -48 -7z m28 -142
c8 -30 31 -109 51 -175 20 -66 36 -121 36 -122 0 -4 -133 -44 -135 -41 -4 5
-43 126 -79 248 l-34 115 66 21 c37 12 70 19 73 15 3 -3 13 -31 22 -61z"/>
<path d="M3365 888 c-20 -62 -204 -702 -202 -705 2 -1 17 -6 34 -9 30 -6 31
-5 47 52 23 81 176 603 186 636 7 22 5 27 -13 32 -34 9 -47 7 -52 -6z"/>
<path d="M2867 783 c-31 -24 -58 -51 -61 -61 -3 -9 -17 -74 -31 -144 l-26
-128 33 -67 33 -67 85 -18 c47 -9 90 -17 96 -18 9 0 35 99 59 230 3 14 7 36
10 50 3 14 7 36 10 50 3 14 12 58 21 98 9 40 15 75 12 77 -2 2 -17 7 -33 10
-66 13 -81 16 -116 24 -34 8 -41 5 -92 -36z m158 -55 c2 -2 -7 -58 -21 -123
-14 -66 -27 -127 -28 -135 -2 -8 -7 -34 -11 -57 -4 -24 -10 -45 -15 -48 -10
-6 -94 5 -109 15 -18 11 -16 35 13 175 16 72 30 141 33 155 8 45 18 49 79 35
30 -7 57 -14 59 -17z"/>
<path d="M3964 788 c-5 -7 2 -113 11 -183 2 -16 7 -66 10 -110 3 -44 8 -96 11
-116 l5 -36 -47 -7 c-26 -3 -60 -6 -75 -6 -28 0 -29 2 -30 53 0 28 -2 61 -4
72 -3 11 -6 47 -9 80 -3 33 -8 96 -11 140 -8 106 -9 107 -47 103 -31 -3 -33
-6 -32 -38 1 -47 13 -200 18 -242 15 -109 16 -178 4 -179 -7 0 -39 -2 -70 -5
-44 -4 -58 -2 -59 8 0 7 -2 29 -4 48 -6 56 -15 159 -21 240 -3 41 -7 84 -9 95
-2 11 -4 28 -4 38 -1 13 -10 17 -37 17 l-36 0 6 -88 c4 -49 9 -102 11 -119 2
-16 7 -70 11 -119 4 -49 8 -100 9 -114 2 -14 3 -38 4 -53 l1 -28 103 6 c56 4
104 9 107 10 3 2 50 6 105 10 55 4 106 9 115 10 8 2 28 4 43 4 l29 1 -7 88
c-3 48 -8 98 -10 112 -2 14 -7 66 -11 115 -4 50 -8 106 -10 125 -1 19 -3 45
-3 58 -1 19 -6 22 -32 20 -17 -1 -33 -6 -35 -10z"/>
</g>
</svg>
